<?xml version="1.0" encoding="UTF-8" standalone="no"?>
<!DOCTYPE svg PUBLIC "-//W3C//DTD SVG 1.1//EN" "http://www.w3.org/Graphics/SVG/1.1/DTD/svg11.dtd">
<svg width="100%" height="100%" viewBox="0 0 1450 358" version="1.1" xmlns="http://www.w3.org/2000/svg" xmlns:xlink="http://www.w3.org/1999/xlink" xml:space="preserve" xmlns:serif="http://www.serif.com/" style="fill-rule:evenodd;clip-rule:evenodd;stroke-linejoin:round;stroke-miterlimit:2;">
    <g transform="matrix(1,0,0,1,-6169,-1278)">
        <g transform="matrix(1,0,0,1,3964,1141)">
            <g transform="matrix(1.03772,0,0,1.03772,-3602.56,126.028)">
                <g transform="matrix(1.75123,0,0,1.75123,-1579.32,54.3897)">
                    <text x="4254px" y="106.795px" style="font-family:'Montserrat-Regular', 'Montserrat';font-size:14.795px;">Phot<tspan x="4289.66px " y="106.795px ">o</tspan>shop</text>
                </g>
                <g transform="matrix(1.63722,0,0,1.63722,-1365.79,33.9172)">
                    <text x="4254px" y="106.795px" style="font-family:'Montserrat-Regular', 'Montserrat';font-size:14.795px;">Lightr<tspan x="4298.6px " y="106.795px ">o</tspan>om</text>
                </g>
                <g transform="matrix(1.34834,0,0,1.34834,-134.068,164.121)">
                    <text x="4254px" y="106.795px" style="font-family:'Montserrat-Regular', 'Montserrat';font-size:14.795px;">Ov<tspan x="4274.2px " y="106.795px ">e</tspan>rse<tspan x="4304.95px " y="106.795px ">a</tspan>s Int<tspan x="4345px 4353.93px 4359.74px " y="106.795px 106.795px 106.795px ">ern</tspan>ship</text>
                </g>
                <g transform="matrix(1.34834,0,0,1.34834,-135.304,161.97)">
                    <text x="4254px" y="92px" style="font-family:'Montserrat-Regular', 'Montserrat';font-size:14.795px;">Immersion P<tspan x="4349.36px 4355.09px " y="92px 92px ">ro</tspan>gr<tspan x="4380.32px " y="92px ">a</tspan>mme</text>
                </g>
                <g transform="matrix(1.17066,0,0,1.17066,681.775,15.5753)">
                    <text x="4254px" y="106.795px" style="font-family:'Montserrat-Regular', 'Montserrat';font-size:14.795px;">Landscape</text>
                </g>
                <g transform="matrix(1.8464,0,0,1.8464,-2064.77,-138.299)">
                    <text x="4254px" y="92px" style="font-family:'Montserrat-Regular', 'Montserrat';font-size:14.795px;">T<tspan x="4261.65px 4270.59px 4278.8px " y="92px 92px 92px ">ech</tspan>ie</text>
                </g>
                <g transform="matrix(1.82834,0,0,1.82834,-1989.27,-108.767)">
                    <text x="4254px" y="92px" style="font-family:'Montserrat-Regular', 'Montserrat';font-size:14.795px;">Gamer</text>
                </g>
                <g transform="matrix(2.56616,0,0,2.56616,-5093.32,-104.763)">
                    <text x="4254px" y="92px" style="font-family:'Montserrat-Regular', 'Montserrat';font-size:14.795px;">W<tspan x="4269.6px " y="92px ">a</tspan>nder<tspan x="4313.08px " y="92px ">e</tspan>r</text>
                </g>
                <g transform="matrix(1.67778,0,0,1.67778,-1539.98,-33.3156)">
                    <text x="4254px" y="92px" style="font-family:'Montserrat-Regular', 'Montserrat';font-size:14.795px;">Jack Of All T<tspan x="4343.18px 4348.97px " y="92px 92px ">ra</tspan>des</text>
                </g>
                <g transform="matrix(2.31477,0,0,2.31477,-4058.9,-119.307)">
                    <text x="4254px" y="92px" style="font-family:'Montserrat-Regular', 'Montserrat';font-size:14.795px;">C<tspan x="4264.36px 4274.32px 4280.13px " y="92px 92px 92px ">uri</tspan>ous</text>
                </g>
                <g>
                    <g transform="matrix(3.86395,0,0,3.86395,-10486.2,-0.58666)">
                        <text x="4254px" y="92px" style="font-family:'Montserrat-Bold', 'Montserrat';font-weight:700;font-size:14.37px;fill:rgb(255,74,23);">Cr<tspan x="4270.6px 4279.45px " y="92px 92px ">ea</tspan>tiv<tspan x="4307.27px " y="92px ">e</tspan></text>
                    </g>
                    <g transform="matrix(8.18752,0,0,8.18752,-29238.5,-659.6)">
                        <text x="4254px" y="92px" style="font-family:'Montserrat-Bold', 'Montserrat';font-weight:700;font-size:14.37px;fill:rgb(0,117,222);">ME</text>
                    </g>
                    <g transform="matrix(4.10948,0,0,4.10948,-11879.2,-114.811)">
                        <text x="4254px" y="92px" style="font-family:'Montserrat-Bold', 'Montserrat';font-weight:700;font-size:14.795px;fill:rgb(255,27,18);">T<tspan x="4262.96px 4269.23px 4278.21px 4286.83px " y="92px 92px 92px 92px ">rave</tspan>ler</text>
                    </g>
                    <g transform="matrix(3.78892,0,0,3.78892,-10228.5,-292.493)">
                        <text x="4254px" y="92px" style="font-family:'Montserrat-Bold', 'Montserrat';font-weight:700;font-size:14.795px;fill:rgb(255,18,18);">C<tspan x="4264.56px " y="92px ">o</tspan>mmunit<tspan x="4336.41px " y="92px ">y</tspan> Ser<tspan x="4374.83px " y="92px ">v</tspan>ic<tspan x="4396.76px " y="92px ">e</tspan></text>
                    </g>
                    <g transform="matrix(3.79233,0,0,3.79233,-9885.29,-174.262)">
                        <text x="4254px" y="92px" style="font-family:'Montserrat-Bold', 'Montserrat';font-weight:700;font-size:14.795px;fill:rgb(0,144,33);">Inf<tspan x="4274.69px " y="92px ">o</tspan>rmation T<tspan x="4358.65px " y="92px ">e</tspan>chnology</text>
                    </g>
                    <g transform="matrix(3.99557,0,0,3.99557,-10273.5,-74.5388)">
                        <text x="4254px" y="92px" style="font-family:'Montserrat-Bold', 'Montserrat';font-weight:700;font-size:14.795px;fill:rgb(255,27,18);">C<tspan x="4264.56px " y="92px ">o</tspan>ntac<tspan x="4308.99px " y="92px ">t</tspan></text>
                    </g>
                    <g transform="matrix(3.79233,0,0,3.79233,-10111.3,-82.4828)">
                        <text x="4254px" y="92px" style="font-family:'Montserrat-Bold', 'Montserrat';font-weight:700;font-size:14.795px;fill:rgb(22,50,153);">Design</text>
                    </g>
                    <g transform="matrix(3.79233,0,0,3.79233,-10531,4.71994)">
                        <text x="4254px" y="92px" style="font-family:'Montserrat-Bold', 'Montserrat';font-weight:700;font-size:14.795px;fill:rgb(27,88,0);">W<tspan x="4270.37px " y="92px ">o</tspan>rk</text>
                    </g>
                    <g transform="matrix(3.72726,0,0,3.72726,-10259.2,-163.73)">
                        <text x="4254px" y="92px" style="font-family:'Montserrat-Bold', 'Montserrat';font-weight:700;font-size:14.37px;fill:rgb(196,0,182);">Phot<tspan x="4289.95px " y="92px ">o</tspan>gr<tspan x="4315.52px " y="92px ">a</tspan>pher</text>
                    </g>
                </g>
                <g transform="matrix(1.28199,0,0,1.28199,609.209,19.5157)">
                    <text x="4254px" y="92px" style="font-family:'Montserrat-Regular', 'Montserrat';font-size:14.795px;">E<tspan x="4263.73px 4271.52px " y="92px 92px ">ve</tspan>nts C<tspan x="4317.88px " y="92px ">o</tspan>or<tspan x="4342.17px " y="92px ">d</tspan>inat<tspan x="4380.64px " y="92px ">o</tspan>r</text>
                </g>
                <g transform="matrix(1.34981,0,0,1.34981,276.571,-8.6094)">
                    <text x="4254px" y="92px" style="font-family:'Montserrat-Regular', 'Montserrat';font-size:14.795px;">E<tspan x="4263.67px 4271.28px " y="92px 92px ">xe</tspan>cutiv<tspan x="4316.28px " y="92px ">e</tspan> C<tspan x="4339.38px " y="92px ">o</tspan>mmit<tspan x="4389.83px 4395.54px " y="92px 92px ">te</tspan>e</text>
                </g>
                <g transform="matrix(1.84782,0,0,1.84782,-1617.95,-48.9589)">
                    <text x="4254px" y="92px" style="font-family:'Montserrat-Regular', 'Montserrat';font-size:14.795px;">Sign Language</text>
                </g>
                <g transform="matrix(1.67726,0,0,1.67726,-1200,-62.4884)">
                    <text x="4254px" y="92px" style="font-family:'Montserrat-Regular', 'Montserrat';font-size:14.795px;">Ngee Ann P<tspan x="4342.87px " y="92px ">o</tspan>ly<tspan x="4364.37px 4370.09px 4379.03px 4387.23px " y="92px 92px 92px 92px ">tech</tspan>nic Hi! Club</text>
                </g>
                <g transform="matrix(1.41394,0,0,1.41394,-247.166,225.354)">
                    <text x="4254px" y="92px" style="font-family:'Montserrat-Regular', 'Montserrat';font-size:14.795px;">Sales Assistant</text>
                </g>
                <g transform="matrix(2.041,0,0,2.041,-2365.6,19.0243)">
                    <text x="4254px" y="92px" style="font-family:'Montserrat-Regular', 'Montserrat';font-size:14.795px;">Deep L<tspan x="4306.59px 4315.3px 4324.03px 4329.84px " y="92px 92px 92px 92px ">earn</tspan>ing</text>
                </g>
                <g transform="matrix(2.05133,0,0,2.05133,-2487.27,51.6775)">
                    <text x="4254px" y="92px" style="font-family:'Montserrat-Regular', 'Montserrat';font-size:14.795px;">User Int<tspan x="4311.9px " y="92px ">e</tspan>rf<tspan x="4331.63px 4340.39px 4348.59px " y="92px 92px 92px ">ace</tspan> Design</text>
                </g>
                <g transform="matrix(1.66413,0,0,1.66413,-838.115,118.095)">
                    <text x="4254px" y="92px" style="font-family:'Montserrat-Regular', 'Montserrat';font-size:14.795px;">Game Design</text>
                </g>
                <g transform="matrix(2.16458,0,0,2.16458,-3222.18,105.69)">
                    <text x="4254px" y="92px" style="font-family:'Montserrat-Regular', 'Montserrat';font-size:14.795px;">Afﬁnit<tspan x="4299.65px " y="92px ">y</tspan> Designer</text>
                </g>
                <g transform="matrix(1.79555,0,0,1.79555,-1083.93,43.9154)">
                    <text x="4254px" y="92px" style="font-family:'Montserrat-Regular', 'Montserrat';font-size:14.795px;">Mobile Application De<tspan x="4418.06px 4425.85px " y="92px 92px ">ve</tspan>lopment</text>
                </g>
                <g transform="matrix(1.97738,0,0,1.97738,-1837.37,59.3726)">
                    <text x="4254px" y="92px" style="font-family:'Montserrat-Regular', 'Montserrat';font-size:14.795px;">F<tspan x="4263.21px 4268.95px " y="92px 92px ">ro</tspan>nt End De<tspan x="4352.98px 4360.77px " y="92px 92px ">ve</tspan>lopement</text>
                </g>
                <g transform="matrix(1.76328,0,0,1.8294,-933.817,-77.8356)">
                    <text x="4254px" y="92px" style="font-family:'Montserrat-Regular', 'Montserrat';font-size:14.795px;">C#</text>
                </g>
                <g transform="matrix(1.70694,0,0,1.70694,-708.832,-31.6953)">
                    <text x="4254px" y="92px" style="font-family:'Montserrat-Regular', 'Montserrat';font-size:14.795px;">SQL</text>
                </g>
                <g transform="matrix(2.09901,0,0,2.09901,-2316.91,-102.477)">
                    <text x="4254px" y="92px" style="font-family:'Montserrat-Regular', 'Montserrat';font-size:14.795px;">P<tspan x="4264.47px " y="92px ">H</tspan>P</text>
                </g>
                <g transform="matrix(2.08138,0,0,2.08138,-2213.82,-136.433)">
                    <text x="4254px" y="92px" style="font-family:'Montserrat-Regular', 'Montserrat';font-size:14.795px;">P<tspan x="4264.5px 4272.75px " y="92px 92px ">yt</tspan>hon</text>
                </g>
                <g transform="matrix(2.16485,0,0,2.16485,-2732.58,-141.743)">
                    <text x="4254px" y="106.795px" style="font-family:'Montserrat-Regular', 'Montserrat';font-size:14.795px;">Unit<tspan x="4285.57px " y="106.795px ">y</tspan></text>
                </g>
                <g transform="matrix(2.09901,0,0,2.09901,-2241.25,-103.113)">
                    <text x="4254px" y="92px" style="font-family:'Montserrat-Regular', 'Montserrat';font-size:14.795px;">HTML 5</text>
                </g>
                <g transform="matrix(1.97619,0,0,1.97619,-1595.28,-92.3561)">
                    <text x="4254px" y="92px" style="font-family:'Montserrat-Regular', 'Montserrat';font-size:14.795px;">CSS</text>
                </g>
                <g transform="matrix(2.20583,0,0,2.20583,-2771.65,-110.602)">
                    <text x="4254px" y="106.795px" style="font-family:'Montserrat-Regular', 'Montserrat';font-size:14.795px;">V<tspan x="4264.05px " y="106.795px ">i</tspan>usal Studio C<tspan x="4364.32px " y="106.795px ">o</tspan>de</text>
                </g>
                <g transform="matrix(2.33695,0,0,2.33695,-3180.64,-156.968)">
                    <text x="4254px" y="92px" style="font-family:'Montserrat-Regular', 'Montserrat';font-size:14.795px;">S<tspan x="4262.95px " y="92px ">w</tspan>ift 4</text>
                </g>
                <g transform="matrix(1.73929,0,0,1.73929,-1666.7,26.9323)">
                    <text x="4254px" y="106.795px" style="font-family:'Montserrat-Regular', 'Montserrat';font-size:14.795px;">P<tspan x="4264.27px 4270.01px " y="106.795px 106.795px ">re</tspan>mier<tspan x="4313.29px " y="106.795px ">e</tspan> P<tspan x="4336.38px 4342.11px " y="106.795px 106.795px ">ro</tspan></text>
                </g>
                <g transform="matrix(2.24031,0,0,2.24031,-3624.4,6.57154)">
                    <text x="4254px" y="92px" style="font-family:'Montserrat-Regular', 'Montserrat';font-size:14.795px;">Ge<tspan x="4274.14px 4282.87px 4288.69px 4298.73px 4307.44px " y="92px 92px 92px 92px 92px ">arhea</tspan>d</text>
                </g>
                <g transform="matrix(1.66561,0,0,1.66561,-1009.49,66.3309)">
                    <text x="4254px" y="92px" style="font-family:'Montserrat-Regular', 'Montserrat';font-size:14.795px;">3D P<tspan x="4288.71px 4294.52px " y="92px 92px ">ri</tspan>nting</text>
                </g>
                <g transform="matrix(1.33625,0,0,1.33625,84.9641,189.422)">
                    <text x="4254px" y="106.795px" style="font-family:'Montserrat-Regular', 'Montserrat';font-size:14.795px;">Mar<tspan x="4282.67px 4291.24px " y="106.795px 106.795px ">ke</tspan>ting</text>
                </g>
            </g>
        </g>
    </g>
</svg>
