<?xml version="1.0" encoding="UTF-8" standalone="no"?>
<!DOCTYPE svg PUBLIC "-//W3C//DTD SVG 1.1//EN" "http://www.w3.org/Graphics/SVG/1.1/DTD/svg11.dtd">
<svg width="100%" height="100%" viewBox="0 0 1360 542" version="1.1" xmlns="http://www.w3.org/2000/svg" xmlns:xlink="http://www.w3.org/1999/xlink" xml:space="preserve" xmlns:serif="http://www.serif.com/" style="fill-rule:evenodd;clip-rule:evenodd;stroke-linejoin:round;stroke-miterlimit:2;">
    <g transform="matrix(1,0,0,1,-6214,-1681)">
        <g transform="matrix(1.2,0,0,3.13,5932.02,1519)">
            <g transform="matrix(1,0,0,1,15.9222,0.409026)">
                <g transform="matrix(1,0,0,0.383387,-22.9806,0)">
                    <path d="M843,492L923.324,572.324L871,572.324L811,521.699L811,505.371L843,492Z" style="fill:rgb(162,162,162);"/>
                </g>
                <g transform="matrix(1,0,0,0.383387,-22.9806,0)">
                    <path d="M923.324,505.631L1002,574L957,574L893,505.631L923.324,505.631Z" style="fill:rgb(162,162,162);"/>
                </g>
                <g>
                    <g transform="matrix(1,0,0,0.724175,-5.99098,0)">
                        <g transform="matrix(1,0,0,0.529412,-2031,-3.27227)">
                            <circle cx="3109.49" cy="209.514" r="9.486"/>
                        </g>
                        <g transform="matrix(1.75559e-14,151.788,-286.71,9.29431e-15,756.178,181.336)">
                            <path d="M0.244,-0.13L0.244,-0.292L0.569,-0.292L0.569,-0.418L0.244,-0.418L0.244,-0.57L0.612,-0.57L0.612,-0.7L0.083,-0.7L0.083,0L0.625,0L0.625,-0.13L0.244,-0.13Z" style="fill:rgb(196,0,182);fill-rule:nonzero;"/>
                        </g>
                        <g transform="matrix(286.71,0,0,151.788,886.631,184.758)">
                            <rect x="0.083" y="-0.7" width="0.162" height="0.7" style="fill:rgb(242,239,0);fill-rule:nonzero;"/>
                        </g>
                        <g transform="matrix(1.41458e-14,-122.304,231.019,7.48897e-15,1141,135.258)">
                            <path d="M0.212,0.012C0.377,0.012 0.464,-0.073 0.464,-0.246L0.464,-0.7L0.057,-0.7L0.057,-0.57L0.303,-0.57L0.303,-0.237C0.303,-0.16 0.269,-0.121 0.204,-0.121C0.154,-0.121 0.112,-0.147 0.074,-0.198L-0.016,-0.09C0.035,-0.024 0.118,0.012 0.212,0.012Z" style="fill:rgb(255,18,18);fill-rule:nonzero;"/>
                        </g>
                        <g transform="matrix(0.471555,0,0.441386,0.250425,607.634,20.3274)">
                            <rect x="423" y="202" width="100.081" height="30.362" style="fill:rgb(162,162,162);"/>
                        </g>
                        <g transform="matrix(1.6406,0,0.441386,0.250425,183.126,20.3274)">
                            <path d="M503.012,297.898C514.532,231.147 510.317,201.067 496.311,202L423,202L423,232.362L488.22,232.362C502.705,233.653 507.916,258.537 503.012,297.898Z" style="fill:rgb(162,162,162);"/>
                        </g>
                        <g transform="matrix(2.00572,0,0.456475,0.223458,-198.368,142.021)">
                            <rect x="423" y="202" width="100.081" height="30.362" style="fill:rgb(162,162,162);"/>
                        </g>
                        <g transform="matrix(-9.49821e-17,-0.82121,-0.456475,-0.2255,848.329,669.116)">
                            <rect x="423" y="202" width="100.081" height="30.362" style="fill:rgb(183,183,183);"/>
                        </g>
                        <g transform="matrix(-1.2314e-16,-1.06466,-0.456475,-0.2255,1002.33,680.519)">
                            <rect x="423" y="202" width="100.081" height="30.362" style="fill:rgb(183,183,183);"/>
                        </g>
                        <g transform="matrix(-5.82254e-17,-0.503414,-0.456475,-0.2255,1071.33,386.942)">
                            <rect x="423" y="202" width="100.081" height="30.362" style="fill:rgb(183,183,183);"/>
                        </g>
                        <g transform="matrix(-5.76607e-17,-0.498532,-0.451683,-0.223132,931.288,523.639)">
                            <path d="M522.019,202L423,202L423,232.362L508.214,232.362L522.019,202Z" style="fill:rgb(124,124,124);"/>
                        </g>
                        <g transform="matrix(-6.68108e-17,-0.577643,-0.451683,-0.223132,1011.29,563.877)">
                            <path d="M520.186,202L423,202L423,232.362L508.458,232.362L520.186,202Z" style="fill:rgb(124,124,124);"/>
                        </g>
                    </g>
                    <g transform="matrix(1,0,0,0.724175,0,0)">
                        <g transform="matrix(533.581,-5.60877e-29,0,282.484,231.817,274.974)">
                            <path d="M0.798,-0.538L0.667,-0.174L0.539,-0.538L0.407,-0.538L0.275,-0.174L0.148,-0.538L0.001,-0.538L0.195,0L0.345,0L0.47,-0.334L0.591,0L0.741,0L0.936,-0.538L0.798,-0.538Z" style="fill:rgb(0,117,222);fill-rule:nonzero;"/>
                        </g>
                        <g transform="matrix(0.911111,0,0,0.482353,65.4222,38.8426)">
                            <path d="M438.252,444.546C438.241,444.287 438.236,444.026 438.236,443.764C438.236,433.408 446.644,425 457,425C467.356,425 475.764,433.408 475.764,443.764C475.764,444.026 475.759,444.287 475.748,444.546L475.764,444.546L475.764,489.504L438.236,489.504L438.236,444.546L438.252,444.546ZM467.5,457.252C468.88,457.252 470,458.372 470,459.752C470,461.132 468.88,462.252 467.5,462.252C466.12,462.252 465,461.132 465,459.752C465,458.372 466.12,457.252 467.5,457.252Z" style="fill:rgb(0,117,222);"/>
                        </g>
                        <g transform="matrix(0.710236,0,0.441386,0.250425,46.009,64.826)">
                            <rect x="423" y="202" width="100.081" height="30.362" style="fill:rgb(162,162,162);"/>
                        </g>
                        <g transform="matrix(0.740211,0,0.441386,0.250425,242.329,64.826)">
                            <rect x="423" y="202" width="100.081" height="30.362" style="fill:rgb(162,162,162);"/>
                        </g>
                        <g transform="matrix(0.780179,0,0.441386,0.250425,-199.792,64.826)">
                            <rect x="423" y="202" width="100.081" height="30.362" style="fill:rgb(162,162,162);"/>
                        </g>
                        <g transform="matrix(1.38021,0,0.441386,0.250425,-375.523,64.826)">
                            <rect x="423" y="202" width="100.081" height="30.362" style="fill:rgb(183,183,183);"/>
                        </g>
                        <g transform="matrix(0.681819,1.02557,-0.299653,0.303562,91.5952,-381.336)">
                            <path d="M521.284,204.585L431.987,202L423,232.362L523.081,232.362L521.284,204.585Z" style="fill:rgb(160,160,160);"/>
                        </g>
                        <g transform="matrix(0.681819,1.02557,-0.299653,0.303562,-2.40481,-381.336)">
                            <path d="M581.968,195.826L432.449,200.44L420.341,216.299L573.193,209.559L581.968,195.826Z" style="fill:rgb(206,206,206);"/>
                        </g>
                        <g transform="matrix(1.37806,0,0.425944,0.241663,-162.047,66.7287)">
                            <rect x="423" y="202" width="100.081" height="30.362" style="fill:rgb(183,183,183);"/>
                        </g>
                    </g>
                    <g transform="matrix(1,0,0,0.724175,-29.8333,0)">
                        <g transform="matrix(1.47628e-14,-127.638,241.095,7.8156e-15,1379.63,182.391)">
                            <path d="M0.244,-0.13L0.244,-0.292L0.569,-0.292L0.569,-0.418L0.244,-0.418L0.244,-0.57L0.612,-0.57L0.612,-0.7L0.083,-0.7L0.083,0L0.625,0L0.625,-0.13L0.244,-0.13Z" style="fill:rgb(0,144,33);fill-rule:nonzero;"/>
                        </g>
                        <g transform="matrix(241.095,0,0,127.638,1255.71,276.202)">
                            <rect x="0.083" y="-0.7" width="0.162" height="0.7" style="fill:rgb(255,74,23);fill-rule:nonzero;"/>
                        </g>
                        <g transform="matrix(0.311685,0,0.441386,0.250425,1044.02,51.5101)">
                            <rect x="423" y="202" width="100.081" height="30.362" style="fill:rgb(162,162,162);"/>
                        </g>
                        <g transform="matrix(0.309516,0,0.441386,0.250425,977.393,46.0244)">
                            <rect x="423" y="202" width="100.081" height="30.362" style="fill:rgb(162,162,162);"/>
                        </g>
                        <g transform="matrix(0.311685,0,0.441386,0.250425,1114.02,44.4361)">
                            <rect x="423" y="202" width="100.081" height="30.362" style="fill:rgb(162,162,162);"/>
                        </g>
                        <g transform="matrix(0.393074,0,0.546014,0.203494,982.279,139.578)">
                            <rect x="423" y="202" width="100.081" height="30.362" style="fill:rgb(162,162,162);"/>
                        </g>
                        <g transform="matrix(0.00837946,-0.670493,-0.453142,-0.267511,1298.86,509.469)">
                            <rect x="423" y="202" width="100.081" height="30.362" style="fill:rgb(183,183,183);"/>
                        </g>
                        <g transform="matrix(0.498381,0.20242,0,0.576494,-354.967,-678.407)">
                            <rect x="3238.11" y="352.963" width="33.89" height="154.037" style="fill:rgb(183,183,183);"/>
                        </g>
                        <g transform="matrix(-2.13796e-16,-0.411301,-0.459173,-0.261773,1371.72,378.066)">
                            <rect x="423" y="202" width="100.081" height="30.362" style="fill:rgb(183,183,183);"/>
                        </g>
                        <g transform="matrix(-2.10493e-16,-0.485833,-0.426237,-0.242996,1434.06,405.8)">
                            <rect x="423" y="202" width="100.081" height="30.362" style="fill:rgb(183,183,183);"/>
                        </g>
                    </g>
                </g>
                <g transform="matrix(1,1.78368e-17,-0.594214,-0.237738,308.612,322.588)">
                    <path d="M464.704,519.362L416,519.362L456.515,413.504L508.885,413.504L547,519.362L498.896,519.362L498.896,478.4L498.881,478.4C498.891,478.164 498.896,477.926 498.896,477.688C498.896,468.252 491.235,460.592 481.8,460.592C472.364,460.592 464.704,468.252 464.704,477.688C464.704,477.926 464.709,478.164 464.719,478.4L464.704,478.4L464.704,519.362ZM491.367,489.977C492.624,489.977 493.644,490.997 493.644,492.254C493.644,493.512 492.624,494.532 491.367,494.532C490.109,494.532 489.089,493.512 489.089,492.254C489.089,490.997 490.109,489.977 491.367,489.977Z" style="fill:rgb(162,162,162);"/>
                </g>
                <g transform="matrix(0.833333,0,0,0.319489,-8378.75,-487.858)">
                    <path d="M11596.9,2153.03L11650,2229L11677,2229L11596.9,2129L11596.9,2153.03Z" style="fill:rgb(162,162,162);"/>
                </g>
            </g>
        </g>
    </g>
</svg>
