<?xml version="1.0" encoding="UTF-8" standalone="no"?>
<!DOCTYPE svg PUBLIC "-//W3C//DTD SVG 1.1//EN" "http://www.w3.org/Graphics/SVG/1.1/DTD/svg11.dtd">
<svg width="100%" height="100%" viewBox="0 0 268 68" version="1.1" xmlns="http://www.w3.org/2000/svg" xmlns:xlink="http://www.w3.org/1999/xlink" xml:space="preserve" xmlns:serif="http://www.serif.com/" style="fill-rule:evenodd;clip-rule:evenodd;stroke-linejoin:round;stroke-miterlimit:2;">
    <g transform="matrix(1,0,0,1,-6760,-1139)">
        <g transform="matrix(1,0,0,1,3964,1141)">
            <g transform="matrix(0.6675,0,0,0.6675,484.028,-16.7275)">
                <g transform="matrix(0.877193,0,0,0.221239,1159.99,-10.8496)">
                    <rect x="2627" y="153" width="456" height="452" style="fill:none;"/>
                </g>
                <g transform="matrix(1,0,0,1,-6904.57,-647.781)">
                    <text x="10473.6px" y="748.08px" style="font-family:'Montserrat-Bold', 'Montserrat';font-weight:700;font-size:70.087px;fill:white;">w<tspan x="10538.2px " y="748.08px ">e</tspan>it<tspan x="10633.1px 10662.4px " y="748.08px 748.08px ">to</tspan>o</text>
                </g>
                <g transform="matrix(0.239964,0,0,0.239964,2816.19,-112.398)">
                    <g transform="matrix(1,0,0,1,86.9023,447.852)">
                        <g transform="matrix(1.23338e-14,201.426,-221.877,1.3586e-14,2684.88,152.441)">
                            <path d="M0.798,-0.538L0.667,-0.174L0.539,-0.538L0.407,-0.538L0.275,-0.174L0.148,-0.538L0.001,-0.538L0.195,0L0.345,0L0.47,-0.334L0.591,0L0.741,0L0.936,-0.538L0.798,-0.538Z" style="fill:white;fill-rule:nonzero;"/>
                        </g>
                        <g transform="matrix(194.046,0,0,270.262,2799.15,340.98)">
                            <rect x="0.083" y="-0.7" width="0.162" height="0.7" style="fill:white;fill-rule:nonzero;"/>
                        </g>
                        <g transform="matrix(185.392,0,0,204.393,2896.17,493.712)">
                            <rect x="0.083" y="-0.7" width="0.162" height="0.7" style="fill:white;fill-rule:nonzero;"/>
                        </g>
                        <g transform="matrix(9.53289e-15,-155.684,155.684,9.53289e-15,2981.06,353.894)">
                            <path d="M0.244,-0.13L0.244,-0.292L0.569,-0.292L0.569,-0.418L0.244,-0.418L0.244,-0.57L0.612,-0.57L0.612,-0.7L0.083,-0.7L0.083,0L0.625,0L0.625,-0.13L0.244,-0.13Z" style="fill:white;fill-rule:nonzero;"/>
                        </g>
                        <g transform="matrix(1.21675e-14,-198.71,198.71,1.21675e-14,2994.93,244.002)">
                            <path d="M0.212,0.012C0.377,0.012 0.464,-0.073 0.464,-0.246L0.464,-0.7L0.057,-0.7L0.057,-0.57L0.303,-0.57L0.303,-0.237C0.303,-0.16 0.269,-0.121 0.204,-0.121C0.154,-0.121 0.112,-0.147 0.074,-0.198L-0.016,-0.09C0.035,-0.024 0.118,0.012 0.212,0.012Z" style="fill:white;fill-rule:nonzero;"/>
                        </g>
                    </g>
                    <g transform="matrix(1,0,0,1,-8048,-12)">
                        <path d="M10897.1,857L10897.1,856.752L10854.2,856.752L10854.2,957.551L10819.8,957.551L10819.8,814.19L11005,814.19L11005,956.112L10970.6,956.112L10970.6,856.752L10930.4,856.752L10930.4,857L10930.4,857L10930.4,957.551L10896.4,957.551L10896.4,857L10897.1,857Z" style="fill:white;fill-rule:nonzero;"/>
                    </g>
                </g>
            </g>
        </g>
    </g>
</svg>
